<svg xmlns="http://www.w3.org/2000/svg" width="1440" height="900"><path d="M685,462L690,539L801,523Z" fill="#448883" stroke="#448883" stroke-width="1.51"/><path d="M801,523L786,439L685,462Z" fill="#438783" stroke="#438783" stroke-width="1.51"/><path d="M690,539L725,574L801,523Z" fill="#458b85" stroke="#458b85" stroke-width="1.51"/><path d="M801,523L871,510L786,439Z" fill="#458b85" stroke="#458b85" stroke-width="1.51"/><path d="M851,617L871,510L801,523Z" fill="#489185" stroke="#489185" stroke-width="1.51"/><path d="M786,439L682,375L685,462Z" fill="#418282" stroke="#418282" stroke-width="1.51"/><path d="M725,574L851,617L801,523Z" fill="#479086" stroke="#479086" stroke-width="1.51"/><path d="M690,539L682,639L725,574Z" fill="#468c85" stroke="#468c85" stroke-width="1.51"/><path d="M602,614L682,639L690,539Z" fill="#458b85" stroke="#458b85" stroke-width="1.51"/><path d="M602,614L690,539L554,509Z" fill="#438683" stroke="#438683" stroke-width="1.51"/><path d="M747,681L851,617L725,574Z" fill="#489287" stroke="#489287" stroke-width="1.51"/><path d="M871,510L876,370L786,439Z" fill="#448984" stroke="#448984" stroke-width="1.51"/><path d="M786,439L783,304L682,375Z" fill="#408081" stroke="#408081" stroke-width="1.51"/><path d="M901,609L904,501L871,510Z" fill="#489287" stroke="#489287" stroke-width="1.51"/><path d="M682,375L618,373L685,462Z" fill="#3f7e80" stroke="#3f7e80" stroke-width="1.51"/><path d="M642,360L618,373L682,375Z" fill="#3d7b80" stroke="#3d7b80" stroke-width="1.51"/><path d="M554,509L690,539L685,462Z" fill="#428482" stroke="#428482" stroke-width="1.51"/><path d="M682,639L747,681L725,574Z" fill="#479086" stroke="#479086" stroke-width="1.51"/><path d="M703,729L747,681L682,639Z" fill="#489387" stroke="#489387" stroke-width="1.51"/><path d="M904,501L876,370L871,510Z" fill="#468c85" stroke="#468c85" stroke-width="1.51"/><path d="M682,375L619,302L642,360Z" fill="#3d797f" stroke="#3d797f" stroke-width="1.51"/><path d="M538,445L554,509L685,462Z" fill="#407f81" stroke="#407f81" stroke-width="1.51"/><path d="M851,617L901,609L871,510Z" fill="#499487" stroke="#499487" stroke-width="1.51"/><path d="M846,707L901,609L851,617Z" fill="#4b9888" stroke="#4b9888" stroke-width="1.51"/><path d="M876,370L783,304L786,439Z" fill="#428382" stroke="#428382" stroke-width="1.51"/><path d="M618,373L538,445L685,462Z" fill="#3f7d80" stroke="#3f7d80" stroke-width="1.51"/><path d="M554,509L528,562L602,614Z" fill="#418482" stroke="#418482" stroke-width="1.51"/><path d="M465,513L528,562L554,509Z" fill="#3f8081" stroke="#3f8081" stroke-width="1.51"/><path d="M904,501L946,408L876,370Z" fill="#458b84" stroke="#458b84" stroke-width="1.51"/><path d="M876,370L857,298L783,304Z" fill="#408181" stroke="#408181" stroke-width="1.51"/><path d="M1001,489L946,408L904,501Z" fill="#479086" stroke="#479086" stroke-width="1.51"/><path d="M618,373L487,310L538,445Z" fill="#3c777f" stroke="#3c777f" stroke-width="1.51"/><path d="M642,360L619,302L618,373Z" fill="#3c787f" stroke="#3c787f" stroke-width="1.51"/><path d="M783,304L619,302L682,375Z" fill="#3e7a80" stroke="#3e7a80" stroke-width="1.51"/><path d="M783,304L703,209L619,302Z" fill="#3c777f" stroke="#3c777f" stroke-width="1.51"/><path d="M974,355L857,298L876,370Z" fill="#428583" stroke="#428583" stroke-width="1.51"/><path d="M618,759L703,729L682,639Z" fill="#489387" stroke="#489387" stroke-width="1.51"/><path d="M543,625L551,634L602,614Z" fill="#448884" stroke="#448884" stroke-width="1.51"/><path d="M747,681L846,707L851,617Z" fill="#4a9788" stroke="#4a9788" stroke-width="1.51"/><path d="M753,773L846,707L747,681Z" fill="#4b9988" stroke="#4b9988" stroke-width="1.51"/><path d="M618,759L682,639L602,614Z" fill="#468f85" stroke="#468f85" stroke-width="1.51"/><path d="M528,562L543,625L602,614Z" fill="#438783" stroke="#438783" stroke-width="1.51"/><path d="M1010,611L1001,489L904,501Z" fill="#4a9587" stroke="#4a9587" stroke-width="1.51"/><path d="M1010,611L904,501L901,609Z" fill="#4a9788" stroke="#4a9788" stroke-width="1.51"/><path d="M857,298L847,256L783,304Z" fill="#3f7e81" stroke="#3f7e81" stroke-width="1.51"/><path d="M928,241L847,256L857,298Z" fill="#3f7f81" stroke="#3f7f81" stroke-width="1.51"/><path d="M974,355L876,370L946,408Z" fill="#448984" stroke="#448984" stroke-width="1.51"/><path d="M1011,438L974,355L946,408Z" fill="#458d85" stroke="#458d85" stroke-width="1.51"/><path d="M528,562L391,626L543,625Z" fill="#428382" stroke="#428382" stroke-width="1.51"/><path d="M538,445L465,513L554,509Z" fill="#3e7d81" stroke="#3e7d81" stroke-width="1.51"/><path d="M444,446L465,513L538,445Z" fill="#3d7a80" stroke="#3d7a80" stroke-width="1.51"/><path d="M703,729L753,773L747,681Z" fill="#4a9888" stroke="#4a9888" stroke-width="1.51"/><path d="M740,811L753,773L703,729Z" fill="#4b9b89" stroke="#4b9b89" stroke-width="1.51"/><path d="M1001,489L1011,438L946,408Z" fill="#479086" stroke="#479086" stroke-width="1.51"/><path d="M911,717L976,644L901,609Z" fill="#4c9c89" stroke="#4c9c89" stroke-width="1.51"/><path d="M1001,489L1072,517L1011,438Z" fill="#499587" stroke="#499587" stroke-width="1.51"/><path d="M911,717L901,609L846,707Z" fill="#4c9b88" stroke="#4c9b88" stroke-width="1.51"/><path d="M876,759L911,717L846,707Z" fill="#4d9f89" stroke="#4d9f89" stroke-width="1.51"/><path d="M551,634L618,759L602,614Z" fill="#468d85" stroke="#468d85" stroke-width="1.51"/><path d="M492,732L618,759L551,634Z" fill="#468e85" stroke="#468e85" stroke-width="1.51"/><path d="M492,732L551,634L543,625Z" fill="#448984" stroke="#448984" stroke-width="1.51"/><path d="M737,200L703,209L783,304Z" fill="#3b777f" stroke="#3b777f" stroke-width="1.51"/><path d="M1032,646L1010,611L976,644Z" fill="#4d9e8a" stroke="#4d9e8a" stroke-width="1.51"/><path d="M976,644L1010,611L901,609Z" fill="#4c9b88" stroke="#4c9b88" stroke-width="1.51"/><path d="M753,773L876,759L846,707Z" fill="#4c9d89" stroke="#4c9d89" stroke-width="1.51"/><path d="M1072,697L1032,646L976,644Z" fill="#4ea18a" stroke="#4ea18a" stroke-width="1.51"/><path d="M847,256L737,200L783,304Z" fill="#3d7a80" stroke="#3d7a80" stroke-width="1.51"/><path d="M487,310L444,446L538,445Z" fill="#3b757e" stroke="#3b757e" stroke-width="1.51"/><path d="M487,310L618,373L619,302Z" fill="#3b757e" stroke="#3b757e" stroke-width="1.51"/><path d="M671,177L567,243L619,302Z" fill="#38717d" stroke="#38717d" stroke-width="1.51"/><path d="M671,177L619,302L703,209Z" fill="#39737e" stroke="#39737e" stroke-width="1.51"/><path d="M753,773L870,836L876,759Z" fill="#4ea18a" stroke="#4ea18a" stroke-width="1.51"/><path d="M672,829L740,811L703,729Z" fill="#4c9b88" stroke="#4c9b88" stroke-width="1.51"/><path d="M567,243L487,310L619,302Z" fill="#39717d" stroke="#39717d" stroke-width="1.51"/><path d="M974,355L928,241L857,298Z" fill="#418382" stroke="#418382" stroke-width="1.51"/><path d="M847,256L842,140L737,200Z" fill="#3b777f" stroke="#3b777f" stroke-width="1.51"/><path d="M1040,240L928,241L974,355Z" fill="#428583" stroke="#428583" stroke-width="1.51"/><path d="M1010,611L1072,517L1001,489Z" fill="#4b9988" stroke="#4b9988" stroke-width="1.51"/><path d="M981,789L976,644L911,717Z" fill="#4ea28a" stroke="#4ea28a" stroke-width="1.51"/><path d="M737,200L671,177L703,209Z" fill="#39727d" stroke="#39727d" stroke-width="1.51"/><path d="M735,123L671,177L737,200Z" fill="#38717d" stroke="#38717d" stroke-width="1.51"/><path d="M1134,568L1072,517L1010,611Z" fill="#4d9d89" stroke="#4d9d89" stroke-width="1.51"/><path d="M1011,438L1055,357L974,355Z" fill="#468d85" stroke="#468d85" stroke-width="1.51"/><path d="M465,513L403,563L528,562Z" fill="#3f7e81" stroke="#3f7e81" stroke-width="1.51"/><path d="M444,446L407,515L465,513Z" fill="#3c7a80" stroke="#3c7a80" stroke-width="1.51"/><path d="M372,531L407,515L309,412Z" fill="#3b767f" stroke="#3b767f" stroke-width="1.51"/><path d="M618,759L672,829L703,729Z" fill="#4a9888" stroke="#4a9888" stroke-width="1.51"/><path d="M571,836L672,829L618,759Z" fill="#4a9888" stroke="#4a9888" stroke-width="1.51"/><path d="M456,735L492,732L543,625Z" fill="#448a84" stroke="#448a84" stroke-width="1.51"/><path d="M407,515L403,563L465,513Z" fill="#3e7c80" stroke="#3e7c80" stroke-width="1.51"/><path d="M1122,392L1055,357L1011,438Z" fill="#479186" stroke="#479186" stroke-width="1.51"/><path d="M876,759L981,789L911,717Z" fill="#4fa28a" stroke="#4fa28a" stroke-width="1.51"/><path d="M740,811L870,836L753,773Z" fill="#4da08a" stroke="#4da08a" stroke-width="1.51"/><path d="M749,929L870,836L740,811Z" fill="#4fa38b" stroke="#4fa38b" stroke-width="1.51"/><path d="M418,225L404,295L487,310Z" fill="#356b7c" stroke="#356b7c" stroke-width="1.51"/><path d="M671,177L574,169L567,243Z" fill="#366d7c" stroke="#366d7c" stroke-width="1.51"/><path d="M407,515L372,531L403,563Z" fill="#3d7b7f" stroke="#3d7b7f" stroke-width="1.51"/><path d="M391,626L456,735L543,625Z" fill="#438683" stroke="#438683" stroke-width="1.51"/><path d="M309,412L407,515L444,446Z" fill="#3a757e" stroke="#3a757e" stroke-width="1.51"/><path d="M391,626L528,562L403,563Z" fill="#408081" stroke="#408081" stroke-width="1.51"/><path d="M492,732L571,836L618,759Z" fill="#489286" stroke="#489286" stroke-width="1.51"/><path d="M928,241L842,140L847,256Z" fill="#3d7b80" stroke="#3d7b80" stroke-width="1.51"/><path d="M671,177L578,99L574,169Z" fill="#356a7b" stroke="#356a7b" stroke-width="1.51"/><path d="M903,122L842,140L928,241Z" fill="#3d797f" stroke="#3d797f" stroke-width="1.51"/><path d="M354,550L391,626L403,563Z" fill="#3e7d80" stroke="#3e7d80" stroke-width="1.51"/><path d="M842,140L735,123L737,200Z" fill="#39737e" stroke="#39737e" stroke-width="1.51"/><path d="M1055,357L1074,325L974,355Z" fill="#458c84" stroke="#458c84" stroke-width="1.51"/><path d="M1122,392L1074,325L1055,357Z" fill="#478f85" stroke="#478f85" stroke-width="1.51"/><path d="M910,847L981,789L876,759Z" fill="#50a68b" stroke="#50a68b" stroke-width="1.51"/><path d="M516,853L571,836L492,732Z" fill="#499386" stroke="#499386" stroke-width="1.51"/><path d="M836,963L910,847L870,836Z" fill="#51aa8c" stroke="#51aa8c" stroke-width="1.51"/><path d="M981,789L1072,697L976,644Z" fill="#4fa48b" stroke="#4fa48b" stroke-width="1.51"/><path d="M1032,646L1134,568L1010,611Z" fill="#4d9f8a" stroke="#4d9f8a" stroke-width="1.51"/><path d="M1072,517L1122,392L1011,438Z" fill="#499587" stroke="#499587" stroke-width="1.51"/><path d="M870,836L910,847L876,759Z" fill="#50a58b" stroke="#50a58b" stroke-width="1.51"/><path d="M716,889L740,811L672,829Z" fill="#4d9f89" stroke="#4d9f89" stroke-width="1.51"/><path d="M372,531L354,550L403,563Z" fill="#3d7a80" stroke="#3d7a80" stroke-width="1.51"/><path d="M242,456L354,550L372,531Z" fill="#3a757e" stroke="#3a757e" stroke-width="1.51"/><path d="M487,310L365,333L444,446Z" fill="#38707d" stroke="#38707d" stroke-width="1.51"/><path d="M482,192L487,310L567,243Z" fill="#366d7c" stroke="#366d7c" stroke-width="1.51"/><path d="M625,920L716,889L672,829Z" fill="#4d9f89" stroke="#4d9f89" stroke-width="1.51"/><path d="M1074,325L1040,240L974,355Z" fill="#448984" stroke="#448984" stroke-width="1.51"/><path d="M1143,223L1059,178L1040,240Z" fill="#428582" stroke="#428582" stroke-width="1.51"/><path d="M1166,488L1122,392L1072,517Z" fill="#4b9888" stroke="#4b9888" stroke-width="1.51"/><path d="M1072,697L1134,568L1032,646Z" fill="#4fa28a" stroke="#4fa28a" stroke-width="1.51"/><path d="M574,169L482,192L567,243Z" fill="#356b7b" stroke="#356b7b" stroke-width="1.51"/><path d="M470,147L482,192L574,169Z" fill="#33677a" stroke="#33677a" stroke-width="1.51"/><path d="M842,140L786,31L735,123Z" fill="#386f7d" stroke="#386f7d" stroke-width="1.51"/><path d="M1059,178L903,122L928,241Z" fill="#3f7d80" stroke="#3f7d80" stroke-width="1.51"/><path d="M404,295L365,333L487,310Z" fill="#366d7c" stroke="#366d7c" stroke-width="1.51"/><path d="M335,199L365,333L404,295Z" fill="#33687b" stroke="#33687b" stroke-width="1.51"/><path d="M571,836L625,920L672,829Z" fill="#4c9c89" stroke="#4c9c89" stroke-width="1.51"/><path d="M456,735L516,853L492,732Z" fill="#478f85" stroke="#478f85" stroke-width="1.51"/><path d="M412,869L516,853L456,735Z" fill="#479185" stroke="#479185" stroke-width="1.51"/><path d="M482,192L418,225L487,310Z" fill="#346a7b" stroke="#346a7b" stroke-width="1.51"/><path d="M1134,568L1166,488L1072,517Z" fill="#4c9c89" stroke="#4c9c89" stroke-width="1.51"/><path d="M391,626L330,754L456,735Z" fill="#428682" stroke="#428682" stroke-width="1.51"/><path d="M354,550L339,638L391,626Z" fill="#3f7d81" stroke="#3f7d81" stroke-width="1.51"/><path d="M274,619L339,638L354,550Z" fill="#3e7b80" stroke="#3e7b80" stroke-width="1.51"/><path d="M652,58L578,99L671,177Z" fill="#346a7b" stroke="#346a7b" stroke-width="1.51"/><path d="M482,192L470,147L418,225Z" fill="#32667a" stroke="#32667a" stroke-width="1.51"/><path d="M652,58L671,177L735,123Z" fill="#356d7b" stroke="#356d7b" stroke-width="1.51"/><path d="M716,889L749,929L740,811Z" fill="#4ea28a" stroke="#4ea28a" stroke-width="1.51"/><path d="M625,920L749,929L716,889Z" fill="#4fa38a" stroke="#4fa38a" stroke-width="1.51"/><path d="M1213,668L1172,541L1134,568Z" fill="#4fa48b" stroke="#4fa48b" stroke-width="1.51"/><path d="M1134,568L1172,541L1166,488Z" fill="#4d9f89" stroke="#4d9f89" stroke-width="1.51"/><path d="M516,853L625,920L571,836Z" fill="#4b9a88" stroke="#4b9a88" stroke-width="1.51"/><path d="M365,333L309,412L444,446Z" fill="#38707d" stroke="#38707d" stroke-width="1.51"/><path d="M231,425L309,412L207,293Z" fill="#34697a" stroke="#34697a" stroke-width="1.51"/><path d="M578,99L470,147L574,169Z" fill="#32677a" stroke="#32677a" stroke-width="1.51"/><path d="M441,68L449,133L470,147Z" fill="#2f6178" stroke="#2f6178" stroke-width="1.51"/><path d="M742,-6L652,58L735,123Z" fill="#346a7b" stroke="#346a7b" stroke-width="1.51"/><path d="M1040,240L1059,178L928,241Z" fill="#418282" stroke="#418282" stroke-width="1.51"/><path d="M1143,223L1040,240L1074,325Z" fill="#448883" stroke="#448883" stroke-width="1.51"/><path d="M1219,320L1074,325L1122,392Z" fill="#479186" stroke="#479186" stroke-width="1.51"/><path d="M1072,697L1213,668L1134,568Z" fill="#50a68b" stroke="#50a68b" stroke-width="1.51"/><path d="M981,789L1088,792L1072,697Z" fill="#51a98c" stroke="#51a98c" stroke-width="1.51"/><path d="M1033,850L1088,792L981,789Z" fill="#52ac8d" stroke="#52ac8d" stroke-width="1.51"/><path d="M1033,850L981,789L910,847Z" fill="#52ab8d" stroke="#52ab8d" stroke-width="1.51"/><path d="M1013,930L1033,850L910,847Z" fill="#53af8d" stroke="#53af8d" stroke-width="1.51"/><path d="M470,147L449,133L418,225Z" fill="#326479" stroke="#326479" stroke-width="1.51"/><path d="M418,225L335,199L404,295Z" fill="#32667a" stroke="#32667a" stroke-width="1.51"/><path d="M529,27L470,147L578,99Z" fill="#316379" stroke="#316379" stroke-width="1.51"/><path d="M884,49L786,31L842,140Z" fill="#38707d" stroke="#38707d" stroke-width="1.51"/><path d="M884,49L842,140L903,122Z" fill="#3a747e" stroke="#3a747e" stroke-width="1.51"/><path d="M1166,488L1197,391L1122,392Z" fill="#4a9787" stroke="#4a9787" stroke-width="1.51"/><path d="M1303,460L1197,391L1166,488Z" fill="#4c9c89" stroke="#4c9c89" stroke-width="1.51"/><path d="M971,22L884,49L903,122Z" fill="#39747d" stroke="#39747d" stroke-width="1.51"/><path d="M749,929L836,963L870,836Z" fill="#51a98c" stroke="#51a98c" stroke-width="1.51"/><path d="M742,1016L836,963L749,929Z" fill="#51aa8c" stroke="#51aa8c" stroke-width="1.51"/><path d="M242,456L274,619L354,550Z" fill="#3b767f" stroke="#3b767f" stroke-width="1.51"/><path d="M339,638L330,754L391,626Z" fill="#418281" stroke="#418281" stroke-width="1.51"/><path d="M233,734L330,754L339,638Z" fill="#408282" stroke="#408282" stroke-width="1.51"/><path d="M509,950L601,984L625,920Z" fill="#4da089" stroke="#4da089" stroke-width="1.51"/><path d="M449,133L369,183L418,225Z" fill="#316379" stroke="#316379" stroke-width="1.51"/><path d="M1059,178L971,22L903,122Z" fill="#3c797f" stroke="#3c797f" stroke-width="1.51"/><path d="M1219,320L1143,223L1074,325Z" fill="#468d85" stroke="#468d85" stroke-width="1.51"/><path d="M330,754L412,869L456,735Z" fill="#458c84" stroke="#458c84" stroke-width="1.51"/><path d="M836,963L936,957L910,847Z" fill="#52ae8d" stroke="#52ae8d" stroke-width="1.51"/><path d="M1211,736L1072,697L1088,792Z" fill="#52ac8c" stroke="#52ac8c" stroke-width="1.51"/><path d="M1143,223L1122,174L1059,178Z" fill="#428582" stroke="#428582" stroke-width="1.51"/><path d="M309,412L242,456L372,531Z" fill="#39727d" stroke="#39727d" stroke-width="1.51"/><path d="M231,425L242,456L309,412Z" fill="#366d7c" stroke="#366d7c" stroke-width="1.51"/><path d="M1090,872L1088,792L1033,850Z" fill="#54b08e" stroke="#54b08e" stroke-width="1.51"/><path d="M1211,736L1213,668L1072,697Z" fill="#52ab8c" stroke="#52ab8c" stroke-width="1.51"/><path d="M1172,541L1301,542L1166,488Z" fill="#4ea18a" stroke="#4ea18a" stroke-width="1.51"/><path d="M786,31L742,-6L735,123Z" fill="#356b7b" stroke="#356b7b" stroke-width="1.51"/><path d="M581,-17L529,27L578,99Z" fill="#2f6178" stroke="#2f6178" stroke-width="1.51"/><path d="M872,-19L742,-6L786,31Z" fill="#346a7b" stroke="#346a7b" stroke-width="1.51"/><path d="M369,183L335,199L418,225Z" fill="#316379" stroke="#316379" stroke-width="1.51"/><path d="M247,174L335,199L264,100Z" fill="#2d5c76" stroke="#2d5c76" stroke-width="1.51"/><path d="M678,1023L742,1016L749,929Z" fill="#51a98c" stroke="#51a98c" stroke-width="1.51"/><path d="M836,963L944,1027L936,957Z" fill="#54b28e" stroke="#54b28e" stroke-width="1.51"/><path d="M509,950L625,920L516,853Z" fill="#4c9b88" stroke="#4c9b88" stroke-width="1.51"/><path d="M412,869L509,950L516,853Z" fill="#4a9687" stroke="#4a9687" stroke-width="1.51"/><path d="M1197,391L1219,320L1122,392Z" fill="#499587" stroke="#499587" stroke-width="1.51"/><path d="M1143,223L1174,201L1122,174Z" fill="#438783" stroke="#438783" stroke-width="1.51"/><path d="M1304,394L1219,320L1197,391Z" fill="#4a9787" stroke="#4a9787" stroke-width="1.51"/><path d="M936,957L1013,930L910,847Z" fill="#53af8d" stroke="#53af8d" stroke-width="1.51"/><path d="M1013,930L1090,872L1033,850Z" fill="#54b28e" stroke="#54b28e" stroke-width="1.51"/><path d="M203,669L233,734L274,619Z" fill="#3e7d80" stroke="#3e7d80" stroke-width="1.51"/><path d="M207,293L309,412L365,333Z" fill="#34697b" stroke="#34697b" stroke-width="1.51"/><path d="M449,133L441,68L369,183Z" fill="#2f6178" stroke="#2f6178" stroke-width="1.51"/><path d="M581,-17L578,99L652,58Z" fill="#316479" stroke="#316479" stroke-width="1.51"/><path d="M678,1023L749,929L625,920Z" fill="#50a68b" stroke="#50a68b" stroke-width="1.51"/><path d="M529,27L441,68L470,147Z" fill="#2f6178" stroke="#2f6178" stroke-width="1.51"/><path d="M742,1016L824,1014L836,963Z" fill="#52ae8d" stroke="#52ae8d" stroke-width="1.51"/><path d="M936,957L944,1027L1013,930Z" fill="#55b58e" stroke="#55b58e" stroke-width="1.51"/><path d="M1219,320L1174,201L1143,223Z" fill="#468c85" stroke="#468c85" stroke-width="1.51"/><path d="M1061,20L971,22L1059,178Z" fill="#3c797f" stroke="#3c797f" stroke-width="1.51"/><path d="M1220,858L1211,736L1088,792Z" fill="#54b28f" stroke="#54b28f" stroke-width="1.51"/><path d="M884,49L872,-19L786,31Z" fill="#366d7c" stroke="#366d7c" stroke-width="1.51"/><path d="M983,-7L971,22L1061,20Z" fill="#3a747d" stroke="#3a747d" stroke-width="1.51"/><path d="M601,984L678,1023L625,920Z" fill="#4fa48a" stroke="#4fa48a" stroke-width="1.51"/><path d="M1001,1047L944,1027L824,1014Z" fill="#56b68f" stroke="#56b68f" stroke-width="1.51"/><path d="M469,982L678,1023L601,984Z" fill="#4ea38b" stroke="#4ea38b" stroke-width="1.51"/><path d="M921,-28L872,-19L884,49Z" fill="#376e7c" stroke="#376e7c" stroke-width="1.51"/><path d="M742,-6L686,-38L652,58Z" fill="#31657a" stroke="#31657a" stroke-width="1.51"/><path d="M768,-109L686,-38L742,-6Z" fill="#306379" stroke="#306379" stroke-width="1.51"/><path d="M686,-38L581,-17L652,58Z" fill="#306279" stroke="#306279" stroke-width="1.51"/><path d="M529,27L489,-59L441,68Z" fill="#2c5c77" stroke="#2c5c77" stroke-width="1.51"/><path d="M1280,724L1271,631L1213,668Z" fill="#53ad8d" stroke="#53ad8d" stroke-width="1.51"/><path d="M1213,668L1271,631L1172,541Z" fill="#50a78c" stroke="#50a78c" stroke-width="1.51"/><path d="M330,754L320,856L412,869Z" fill="#458c84" stroke="#458c84" stroke-width="1.51"/><path d="M412,869L424,952L509,950Z" fill="#4a9888" stroke="#4a9888" stroke-width="1.51"/><path d="M234,853L320,856L330,754Z" fill="#448984" stroke="#448984" stroke-width="1.51"/><path d="M233,734L339,638L274,619Z" fill="#3f7e80" stroke="#3f7e80" stroke-width="1.51"/><path d="M509,950L469,982L601,984Z" fill="#4d9f89" stroke="#4d9f89" stroke-width="1.51"/><path d="M319,937L424,952L412,869Z" fill="#489487" stroke="#489487" stroke-width="1.51"/><path d="M872,-19L768,-109L742,-6Z" fill="#33667a" stroke="#33667a" stroke-width="1.51"/><path d="M971,22L921,-28L884,49Z" fill="#38707c" stroke="#38707c" stroke-width="1.51"/><path d="M983,-7L921,-28L971,22Z" fill="#38717c" stroke="#38717c" stroke-width="1.51"/><path d="M424,952L469,982L509,950Z" fill="#4c9b88" stroke="#4c9b88" stroke-width="1.51"/><path d="M1061,20L1059,178L1146,64Z" fill="#3e7d80" stroke="#3e7d80" stroke-width="1.51"/><path d="M203,669L274,619L168,547Z" fill="#3b777e" stroke="#3b777e" stroke-width="1.51"/><path d="M335,199L233,256L365,333Z" fill="#316479" stroke="#316479" stroke-width="1.51"/><path d="M247,174L233,256L335,199Z" fill="#2e5f78" stroke="#2e5f78" stroke-width="1.51"/><path d="M1271,631L1301,542L1172,541Z" fill="#50a68b" stroke="#50a68b" stroke-width="1.51"/><path d="M1301,542L1303,460L1166,488Z" fill="#4ea18a" stroke="#4ea18a" stroke-width="1.51"/><path d="M1219,320L1321,212L1174,201Z" fill="#478f85" stroke="#478f85" stroke-width="1.51"/><path d="M168,547L242,456L152,483Z" fill="#376e7c" stroke="#376e7c" stroke-width="1.51"/><path d="M168,547L274,619L242,456Z" fill="#39737e" stroke="#39737e" stroke-width="1.51"/><path d="M1142,956L1170,885L1090,872Z" fill="#56b890" stroke="#56b890" stroke-width="1.51"/><path d="M824,1014L944,1027L836,963Z" fill="#54b18e" stroke="#54b18e" stroke-width="1.51"/><path d="M1001,1047L824,1014L742,1016Z" fill="#54b38e" stroke="#54b38e" stroke-width="1.51"/><path d="M233,256L207,293L365,333Z" fill="#316479" stroke="#316479" stroke-width="1.51"/><path d="M1303,460L1304,394L1197,391Z" fill="#4c9c89" stroke="#4c9c89" stroke-width="1.51"/><path d="M1174,116L1122,174L1174,201Z" fill="#428582" stroke="#428582" stroke-width="1.51"/><path d="M1156,86L1059,178L1122,174Z" fill="#418281" stroke="#418281" stroke-width="1.51"/><path d="M160,427L242,456L231,425Z" fill="#356b7b" stroke="#356b7b" stroke-width="1.51"/><path d="M1311,168L1174,116L1174,201Z" fill="#438883" stroke="#438883" stroke-width="1.51"/><path d="M1090,872L1170,885L1088,792Z" fill="#55b38e" stroke="#55b38e" stroke-width="1.51"/><path d="M1211,736L1280,724L1213,668Z" fill="#54af8e" stroke="#54af8e" stroke-width="1.51"/><path d="M1142,956L1090,872L1013,930Z" fill="#56b68f" stroke="#56b68f" stroke-width="1.51"/><path d="M1174,116L1156,86L1122,174Z" fill="#418282" stroke="#418282" stroke-width="1.51"/><path d="M151,355L160,427L231,425Z" fill="#33687a" stroke="#33687a" stroke-width="1.51"/><path d="M1271,631L1335,602L1301,542Z" fill="#51aa8c" stroke="#51aa8c" stroke-width="1.51"/><path d="M1274,796L1280,724L1211,736Z" fill="#55b38f" stroke="#55b38f" stroke-width="1.51"/><path d="M1304,394L1306,341L1219,320Z" fill="#4a9888" stroke="#4a9888" stroke-width="1.51"/><path d="M1362,372L1306,341L1304,394Z" fill="#4c9b88" stroke="#4c9b88" stroke-width="1.51"/><path d="M1362,372L1304,394L1303,460Z" fill="#4d9e89" stroke="#4d9e89" stroke-width="1.51"/><path d="M160,427L152,483L242,456Z" fill="#356c7b" stroke="#356c7b" stroke-width="1.51"/><path d="M424,952L425,995L469,982Z" fill="#4b9b89" stroke="#4b9b89" stroke-width="1.51"/><path d="M469,982L425,995L678,1023Z" fill="#4ea18a" stroke="#4ea18a" stroke-width="1.51"/><path d="M319,937L425,995L424,952Z" fill="#4a9787" stroke="#4a9787" stroke-width="1.51"/><path d="M207,293L151,355L231,425Z" fill="#32667a" stroke="#32667a" stroke-width="1.51"/><path d="M233,256L185,268L207,293Z" fill="#2f6078" stroke="#2f6078" stroke-width="1.51"/><path d="M264,100L335,199L369,183Z" fill="#2e5e77" stroke="#2e5e77" stroke-width="1.51"/><path d="M264,100L369,183L300,45Z" fill="#2b5a76" stroke="#2b5a76" stroke-width="1.51"/><path d="M1253,72L1146,64L1156,86Z" fill="#408082" stroke="#408082" stroke-width="1.51"/><path d="M1156,86L1146,64L1059,178Z" fill="#408081" stroke="#408081" stroke-width="1.51"/><path d="M1253,72L1156,86L1174,116Z" fill="#418282" stroke="#418282" stroke-width="1.51"/><path d="M1170,885L1220,858L1088,792Z" fill="#55b58f" stroke="#55b58f" stroke-width="1.51"/><path d="M1319,947L1220,858L1170,885Z" fill="#58bc91" stroke="#58bc91" stroke-width="1.51"/><path d="M165,176L185,268L233,256Z" fill="#2d5d77" stroke="#2d5d77" stroke-width="1.51"/><path d="M1359,706L1335,602L1271,631Z" fill="#53af8d" stroke="#53af8d" stroke-width="1.51"/><path d="M1301,542L1401,518L1303,460Z" fill="#50a68b" stroke="#50a68b" stroke-width="1.51"/><path d="M1359,706L1271,631L1280,724Z" fill="#54b18e" stroke="#54b18e" stroke-width="1.51"/><path d="M160,427L56,457L152,483Z" fill="#34697a" stroke="#34697a" stroke-width="1.51"/><path d="M185,268L151,355L207,293Z" fill="#2f6278" stroke="#2f6278" stroke-width="1.51"/><path d="M858,-120L921,-28L946,-136Z" fill="#34687b" stroke="#34687b" stroke-width="1.51"/><path d="M858,-120L872,-19L921,-28Z" fill="#356a7a" stroke="#356a7a" stroke-width="1.51"/><path d="M858,-120L768,-109L872,-19Z" fill="#326679" stroke="#326679" stroke-width="1.51"/><path d="M686,-38L612,-148L581,-17Z" fill="#2d5d77" stroke="#2d5d77" stroke-width="1.51"/><path d="M944,1027L1001,1047L1013,930Z" fill="#56b88f" stroke="#56b88f" stroke-width="1.51"/><path d="M678,1023L1001,1047L742,1016Z" fill="#53b08d" stroke="#53b08d" stroke-width="1.51"/><path d="M581,-17L489,-59L529,27Z" fill="#2c5d77" stroke="#2c5d77" stroke-width="1.51"/><path d="M768,-109L698,-110L686,-38Z" fill="#2f6078" stroke="#2f6078" stroke-width="1.51"/><path d="M234,853L330,754L233,734Z" fill="#428583" stroke="#428583" stroke-width="1.51"/><path d="M234,853L319,937L320,856Z" fill="#468d85" stroke="#468d85" stroke-width="1.51"/><path d="M320,856L319,937L412,869Z" fill="#479086" stroke="#479086" stroke-width="1.51"/><path d="M1082,1020L1142,956L1013,930Z" fill="#57ba90" stroke="#57ba90" stroke-width="1.51"/><path d="M492,-126L489,-59L581,-17Z" fill="#295876" stroke="#295876" stroke-width="1.51"/><path d="M1326,758L1274,796L1358,832Z" fill="#57b990" stroke="#57b990" stroke-width="1.51"/><path d="M1220,858L1274,796L1211,736Z" fill="#56b58f" stroke="#56b58f" stroke-width="1.51"/><path d="M169,848L234,853L233,734Z" fill="#428482" stroke="#428482" stroke-width="1.51"/><path d="M142,750L233,734L203,669Z" fill="#3e7d80" stroke="#3e7d80" stroke-width="1.51"/><path d="M122,667L203,669L168,547Z" fill="#3b757e" stroke="#3b757e" stroke-width="1.51"/><path d="M300,45L369,183L441,68Z" fill="#2d5d77" stroke="#2d5d77" stroke-width="1.51"/><path d="M247,174L165,176L233,256Z" fill="#2c5c77" stroke="#2c5c77" stroke-width="1.51"/><path d="M1001,1047L1082,1020L1013,930Z" fill="#57ba90" stroke="#57ba90" stroke-width="1.51"/><path d="M768,-109L612,-148L698,-110Z" fill="#2c5d77" stroke="#2c5d77" stroke-width="1.51"/><path d="M946,-136L921,-28L983,-7Z" fill="#366d7c" stroke="#366d7c" stroke-width="1.51"/><path d="M946,-136L983,-7L1036,-107Z" fill="#366d7c" stroke="#366d7c" stroke-width="1.51"/><path d="M325,2L300,45L441,68Z" fill="#295875" stroke="#295875" stroke-width="1.51"/><path d="M1306,341L1321,212L1219,320Z" fill="#489486" stroke="#489486" stroke-width="1.51"/><path d="M1401,518L1362,372L1303,460Z" fill="#4fa38a" stroke="#4fa38a" stroke-width="1.51"/><path d="M489,-59L432,-63L441,68Z" fill="#2a5976" stroke="#2a5976" stroke-width="1.51"/><path d="M492,-126L432,-63L489,-59Z" fill="#275675" stroke="#275675" stroke-width="1.51"/><path d="M1335,602L1401,518L1301,542Z" fill="#51aa8c" stroke="#51aa8c" stroke-width="1.51"/><path d="M1274,796L1326,758L1280,724Z" fill="#56b58f" stroke="#56b58f" stroke-width="1.51"/><path d="M1358,832L1274,796L1330,915Z" fill="#59bd91" stroke="#59bd91" stroke-width="1.51"/><path d="M42,558L122,667L168,547Z" fill="#38717c" stroke="#38717c" stroke-width="1.51"/><path d="M42,558L168,547L152,483Z" fill="#366d7c" stroke="#366d7c" stroke-width="1.51"/><path d="M432,-63L325,2L441,68Z" fill="#295876" stroke="#295876" stroke-width="1.51"/><path d="M181,52L165,176L264,100Z" fill="#285675" stroke="#285675" stroke-width="1.51"/><path d="M1345,207L1321,212L1306,341Z" fill="#489386" stroke="#489386" stroke-width="1.51"/><path d="M1281,1015L1319,947L1170,885Z" fill="#59c192" stroke="#59c192" stroke-width="1.51"/><path d="M1082,1020L1153,999L1142,956Z" fill="#58be91" stroke="#58be91" stroke-width="1.51"/><path d="M1281,1015L1153,999L1082,1020Z" fill="#59c292" stroke="#59c292" stroke-width="1.51"/><path d="M122,667L142,750L203,669Z" fill="#3d7a7f" stroke="#3d7a7f" stroke-width="1.51"/><path d="M1326,758L1359,706L1280,724Z" fill="#56b58f" stroke="#56b58f" stroke-width="1.51"/><path d="M698,-110L612,-148L686,-38Z" fill="#2c5e77" stroke="#2c5e77" stroke-width="1.51"/><path d="M858,-120L612,-148L768,-109Z" fill="#2e5f77" stroke="#2e5f77" stroke-width="1.51"/><path d="M1036,-107L983,-7L1061,20Z" fill="#39727d" stroke="#39727d" stroke-width="1.51"/><path d="M1321,212L1311,168L1174,201Z" fill="#468d84" stroke="#468d84" stroke-width="1.51"/><path d="M1345,207L1311,168L1321,212Z" fill="#478f85" stroke="#478f85" stroke-width="1.51"/><path d="M264,100L165,176L247,174Z" fill="#2a5976" stroke="#2a5976" stroke-width="1.51"/><path d="M65,341L82,400L151,355Z" fill="#2f6278" stroke="#2f6278" stroke-width="1.51"/><path d="M151,355L82,400L160,427Z" fill="#326579" stroke="#326579" stroke-width="1.51"/><path d="M181,52L264,100L300,45Z" fill="#285574" stroke="#285574" stroke-width="1.51"/><path d="M1436,620L1401,518L1335,602Z" fill="#52ae8d" stroke="#52ae8d" stroke-width="1.51"/><path d="M1362,372L1386,355L1306,341Z" fill="#4c9c89" stroke="#4c9c89" stroke-width="1.51"/><path d="M1467,368L1386,355L1362,372Z" fill="#4da089" stroke="#4da089" stroke-width="1.51"/><path d="M1036,-107L1061,20L1130,-54Z" fill="#3a737e" stroke="#3a737e" stroke-width="1.51"/><path d="M858,-120L946,-136L612,-148Z" fill="#2f6178" stroke="#2f6178" stroke-width="1.51"/><path d="M65,341L151,355L68,253Z" fill="#2d5e77" stroke="#2d5e77" stroke-width="1.51"/><path d="M1311,168L1253,72L1174,116Z" fill="#438683" stroke="#438683" stroke-width="1.51"/><path d="M1386,355L1345,207L1306,341Z" fill="#4a9888" stroke="#4a9888" stroke-width="1.51"/><path d="M1311,168L1348,150L1253,72Z" fill="#448a84" stroke="#448a84" stroke-width="1.51"/><path d="M142,750L169,848L233,734Z" fill="#408182" stroke="#408182" stroke-width="1.51"/><path d="M210,955L280,1019L319,937Z" fill="#489286" stroke="#489286" stroke-width="1.51"/><path d="M612,-148L492,-126L581,-17Z" fill="#295975" stroke="#295975" stroke-width="1.51"/><path d="M325,-75L276,-32L325,2Z" fill="#245173" stroke="#245173" stroke-width="1.51"/><path d="M1130,-54L1061,20L1146,64Z" fill="#3c797f" stroke="#3c797f" stroke-width="1.51"/><path d="M1198,-61L1130,-54L1146,64Z" fill="#3d7a7f" stroke="#3d7a7f" stroke-width="1.51"/><path d="M319,937L321,1027L425,995Z" fill="#4a9787" stroke="#4a9787" stroke-width="1.51"/><path d="M425,995L321,1027L678,1023Z" fill="#4d9f8a" stroke="#4d9f8a" stroke-width="1.51"/><path d="M678,1023L321,1027L1001,1047Z" fill="#51aa8c" stroke="#51aa8c" stroke-width="1.51"/><path d="M280,1019L321,1027L319,937Z" fill="#499687" stroke="#499687" stroke-width="1.51"/><path d="M82,400L56,457L160,427Z" fill="#326679" stroke="#326679" stroke-width="1.51"/><path d="M122,667L55,740L142,750Z" fill="#3c797f" stroke="#3c797f" stroke-width="1.51"/><path d="M52,800L147,884L169,848Z" fill="#418382" stroke="#418382" stroke-width="1.51"/><path d="M-8,372L56,457L82,400Z" fill="#306279" stroke="#306279" stroke-width="1.51"/><path d="M68,253L151,355L185,268Z" fill="#2d5f77" stroke="#2d5f77" stroke-width="1.51"/><path d="M210,955L319,937L234,853Z" fill="#468d85" stroke="#468d85" stroke-width="1.51"/><path d="M1198,-61L1122,-101L1130,-54Z" fill="#3b757e" stroke="#3b757e" stroke-width="1.51"/><path d="M1345,207L1348,150L1311,168Z" fill="#468f85" stroke="#468f85" stroke-width="1.51"/><path d="M1483,222L1348,150L1345,207Z" fill="#489286" stroke="#489286" stroke-width="1.51"/><path d="M147,884L210,955L234,853Z" fill="#448a84" stroke="#448a84" stroke-width="1.51"/><path d="M12,575L42,558L-28,518Z" fill="#346a7b" stroke="#346a7b" stroke-width="1.51"/><path d="M56,457L42,558L152,483Z" fill="#346a7b" stroke="#346a7b" stroke-width="1.51"/><path d="M169,848L147,884L234,853Z" fill="#438783" stroke="#438783" stroke-width="1.51"/><path d="M1359,706L1436,620L1335,602Z" fill="#54b28e" stroke="#54b28e" stroke-width="1.51"/><path d="M1326,758L1451,726L1359,706Z" fill="#57b88f" stroke="#57b88f" stroke-width="1.51"/><path d="M1330,915L1274,796L1220,858Z" fill="#58bb91" stroke="#58bb91" stroke-width="1.51"/><path d="M325,2L276,-32L300,45Z" fill="#265374" stroke="#265374" stroke-width="1.51"/><path d="M165,176L68,253L185,268Z" fill="#2b5b76" stroke="#2b5b76" stroke-width="1.51"/><path d="M325,-75L325,2L432,-63Z" fill="#255374" stroke="#255374" stroke-width="1.51"/><path d="M1465,649L1436,620L1359,706Z" fill="#55b58f" stroke="#55b58f" stroke-width="1.51"/><path d="M1401,518L1449,508L1362,372Z" fill="#50a68b" stroke="#50a68b" stroke-width="1.51"/><path d="M1386,355L1453,286L1345,207Z" fill="#4a9988" stroke="#4a9988" stroke-width="1.51"/><path d="M407,-148L325,-75L432,-63Z" fill="#255173" stroke="#255173" stroke-width="1.51"/><path d="M1436,620L1449,508L1401,518Z" fill="#53ad8d" stroke="#53ad8d" stroke-width="1.51"/><path d="M52,800L169,848L142,750Z" fill="#3f7f81" stroke="#3f7f81" stroke-width="1.51"/><path d="M1036,-107L1240,-145L946,-136Z" fill="#376e7c" stroke="#376e7c" stroke-width="1.51"/><path d="M1130,-54L1122,-101L1036,-107Z" fill="#39717d" stroke="#39717d" stroke-width="1.51"/><path d="M1198,-61L1146,64L1253,72Z" fill="#3f7e81" stroke="#3f7e81" stroke-width="1.51"/><path d="M276,-32L181,52L300,45Z" fill="#255274" stroke="#255274" stroke-width="1.51"/><path d="M85,148L68,253L165,176Z" fill="#295775" stroke="#295775" stroke-width="1.51"/><path d="M-28,518L42,558L56,457Z" fill="#33677a" stroke="#33677a" stroke-width="1.51"/><path d="M42,558L42,674L122,667Z" fill="#38727d" stroke="#38727d" stroke-width="1.51"/><path d="M1298,-11L1198,-61L1253,72Z" fill="#3f7f81" stroke="#3f7f81" stroke-width="1.51"/><path d="M1319,947L1330,915L1220,858Z" fill="#59c091" stroke="#59c091" stroke-width="1.51"/><path d="M1451,726L1465,649L1359,706Z" fill="#56b88f" stroke="#56b88f" stroke-width="1.51"/><path d="M276,-32L198,-73L181,52Z" fill="#224e73" stroke="#224e73" stroke-width="1.51"/><path d="M325,-75L263,-76L276,-32Z" fill="#224f73" stroke="#224f73" stroke-width="1.51"/><path d="M492,-126L407,-148L432,-63Z" fill="#265274" stroke="#265274" stroke-width="1.51"/><path d="M612,-148L407,-148L492,-126Z" fill="#265474" stroke="#265474" stroke-width="1.51"/><path d="M42,674L55,740L122,667Z" fill="#3b767e" stroke="#3b767e" stroke-width="1.51"/><path d="M-31,734L52,800L55,740Z" fill="#3c787f" stroke="#3c787f" stroke-width="1.51"/><path d="M42,558L12,575L42,674Z" fill="#376e7c" stroke="#376e7c" stroke-width="1.51"/><path d="M-8,372L82,400L65,341Z" fill="#2e5f78" stroke="#2e5f78" stroke-width="1.51"/><path d="M1281,1015L1170,885L1142,956Z" fill="#58bf91" stroke="#58bf91" stroke-width="1.51"/><path d="M1451,726L1326,758L1358,832Z" fill="#58bb90" stroke="#58bb90" stroke-width="1.51"/><path d="M1281,1015L1142,956L1153,999Z" fill="#59c192" stroke="#59c192" stroke-width="1.51"/><path d="M1449,508L1467,368L1362,372Z" fill="#4fa48a" stroke="#4fa48a" stroke-width="1.51"/><path d="M1506,494L1467,368L1449,508Z" fill="#51a98c" stroke="#51a98c" stroke-width="1.51"/><path d="M1567,548L1506,494L1449,508Z" fill="#53af8d" stroke="#53af8d" stroke-width="1.51"/><path d="M1451,726L1358,832L1459,872Z" fill="#59bf91" stroke="#59bf91" stroke-width="1.51"/><path d="M-39,358L-8,372L65,341Z" fill="#2c5d77" stroke="#2c5d77" stroke-width="1.51"/><path d="M181,52L85,148L165,176Z" fill="#275474" stroke="#275474" stroke-width="1.51"/><path d="M1467,368L1453,286L1386,355Z" fill="#4d9f89" stroke="#4d9f89" stroke-width="1.51"/><path d="M1349,27L1298,-11L1253,72Z" fill="#418382" stroke="#418382" stroke-width="1.51"/><path d="M407,-148L263,-76L325,-75Z" fill="#224f72" stroke="#224f72" stroke-width="1.51"/><path d="M181,52L49,66L85,148Z" fill="#245073" stroke="#245073" stroke-width="1.51"/><path d="M1459,872L1358,832L1330,915Z" fill="#5ac292" stroke="#5ac292" stroke-width="1.51"/><path d="M1547,774L1523,662L1451,726Z" fill="#58be91" stroke="#58be91" stroke-width="1.51"/><path d="M1001,1047L1281,1015L1082,1020Z" fill="#59c091" stroke="#59c091" stroke-width="1.51"/><path d="M55,740L52,800L142,750Z" fill="#3d7b80" stroke="#3d7b80" stroke-width="1.51"/><path d="M105,954L155,1009L210,955Z" fill="#468d85" stroke="#468d85" stroke-width="1.51"/><path d="M-31,734L55,740L42,674Z" fill="#3a757e" stroke="#3a757e" stroke-width="1.51"/><path d="M1349,27L1253,72L1348,150Z" fill="#438883" stroke="#438883" stroke-width="1.51"/><path d="M1198,-61L1207,-104L1122,-101Z" fill="#3b757e" stroke="#3b757e" stroke-width="1.51"/><path d="M-39,358L65,341L-46,242Z" fill="#2a5976" stroke="#2a5976" stroke-width="1.51"/><path d="M1298,-11L1207,-104L1198,-61Z" fill="#3d7a7f" stroke="#3d7a7f" stroke-width="1.51"/><path d="M1122,-101L1240,-145L1036,-107Z" fill="#38717d" stroke="#38717d" stroke-width="1.51"/><path d="M1536,445L1506,494L1567,548Z" fill="#53af8d" stroke="#53af8d" stroke-width="1.51"/><path d="M1567,548L1449,508L1436,620Z" fill="#54b18e" stroke="#54b18e" stroke-width="1.51"/><path d="M1537,260L1483,222L1453,286Z" fill="#4c9c89" stroke="#4c9c89" stroke-width="1.51"/><path d="M1336,-101L1240,-145L1207,-104Z" fill="#3c787f" stroke="#3c787f" stroke-width="1.51"/><path d="M1471,109L1349,27L1348,150Z" fill="#458c84" stroke="#458c84" stroke-width="1.51"/><path d="M12,575L-45,636L42,674Z" fill="#376e7c" stroke="#376e7c" stroke-width="1.51"/><path d="M-8,372L-28,518L56,457Z" fill="#306378" stroke="#306378" stroke-width="1.51"/><path d="M105,954L210,955L147,884Z" fill="#448a84" stroke="#448a84" stroke-width="1.51"/><path d="M210,955L155,1009L280,1019Z" fill="#479185" stroke="#479185" stroke-width="1.51"/><path d="M280,1019L155,1009L321,1027Z" fill="#499587" stroke="#499587" stroke-width="1.51"/><path d="M15,870L105,954L147,884Z" fill="#428582" stroke="#428582" stroke-width="1.51"/><path d="M97,-137L198,-73L263,-76Z" fill="#1d4871" stroke="#1d4871" stroke-width="1.51"/><path d="M263,-76L198,-73L276,-32Z" fill="#214d72" stroke="#214d72" stroke-width="1.51"/><path d="M1453,286L1483,222L1345,207Z" fill="#4a9887" stroke="#4a9887" stroke-width="1.51"/><path d="M1537,260L1453,286L1467,368Z" fill="#4d9f8a" stroke="#4d9f8a" stroke-width="1.51"/><path d="M-8,372L-106,457L-28,518Z" fill="#2f6078" stroke="#2f6078" stroke-width="1.51"/><path d="M-46,242L65,341L68,253Z" fill="#2a5976" stroke="#2a5976" stroke-width="1.51"/><path d="M10,144L68,253L85,148Z" fill="#265474" stroke="#265474" stroke-width="1.51"/><path d="M1349,27L1365,2L1298,-11Z" fill="#418382" stroke="#418382" stroke-width="1.51"/><path d="M1485,72L1365,2L1349,27Z" fill="#438883" stroke="#438883" stroke-width="1.51"/><path d="M1506,494L1536,445L1467,368Z" fill="#51a98c" stroke="#51a98c" stroke-width="1.51"/><path d="M1567,548L1436,620L1465,649Z" fill="#55b48f" stroke="#55b48f" stroke-width="1.51"/><path d="M-88,566L-45,636L12,575Z" fill="#346a7b" stroke="#346a7b" stroke-width="1.51"/><path d="M52,800L15,870L147,884Z" fill="#408081" stroke="#408081" stroke-width="1.51"/><path d="M-88,566L12,575L-28,518Z" fill="#33687a" stroke="#33687a" stroke-width="1.51"/><path d="M1451,726L1523,662L1465,649Z" fill="#57b990" stroke="#57b990" stroke-width="1.51"/><path d="M1459,872L1330,915L1401,972Z" fill="#5bc693" stroke="#5bc693" stroke-width="1.51"/><path d="M198,-73L147,-48L181,52Z" fill="#204c72" stroke="#204c72" stroke-width="1.51"/><path d="M-45,636L-31,734L42,674Z" fill="#38717d" stroke="#38717d" stroke-width="1.51"/><path d="M1401,972L1330,915L1319,947Z" fill="#5bc693" stroke="#5bc693" stroke-width="1.51"/><path d="M49,66L10,144L85,148Z" fill="#235073" stroke="#235073" stroke-width="1.51"/><path d="M1336,-101L1207,-104L1298,-11Z" fill="#3d7b80" stroke="#3d7b80" stroke-width="1.51"/><path d="M1207,-104L1240,-145L1122,-101Z" fill="#3a747e" stroke="#3a747e" stroke-width="1.51"/><path d="M946,-136L1240,-145L612,-148Z" fill="#32667a" stroke="#32667a" stroke-width="1.51"/><path d="M1281,1015L1401,972L1319,947Z" fill="#5cc793" stroke="#5cc793" stroke-width="1.51"/><path d="M147,-48L49,66L181,52Z" fill="#214d71" stroke="#214d71" stroke-width="1.51"/><path d="M-31,734L15,870L52,800Z" fill="#3d7a80" stroke="#3d7a80" stroke-width="1.51"/><path d="M105,954L54,1001L155,1009Z" fill="#458b84" stroke="#458b84" stroke-width="1.51"/><path d="M-39,358L-74,380L-8,372Z" fill="#2b5c76" stroke="#2b5c76" stroke-width="1.51"/><path d="M-139,344L-74,380L-39,358Z" fill="#2a5976" stroke="#2a5976" stroke-width="1.51"/><path d="M10,144L-46,242L68,253Z" fill="#265474" stroke="#265474" stroke-width="1.51"/><path d="M-115,271L-46,242L-103,132Z" fill="#235073" stroke="#235073" stroke-width="1.51"/><path d="M1483,222L1471,109L1348,150Z" fill="#489386" stroke="#489386" stroke-width="1.51"/><path d="M1365,2L1336,-101L1298,-11Z" fill="#408081" stroke="#408081" stroke-width="1.51"/><path d="M1533,168L1471,109L1483,222Z" fill="#499687" stroke="#499687" stroke-width="1.51"/><path d="M1573,294L1537,260L1467,368Z" fill="#4ea18a" stroke="#4ea18a" stroke-width="1.51"/><path d="M1523,662L1567,548L1465,649Z" fill="#56b78f" stroke="#56b78f" stroke-width="1.51"/><path d="M1547,774L1567,548L1523,662Z" fill="#57bb90" stroke="#57bb90" stroke-width="1.51"/><path d="M1573,294L1467,368L1536,445Z" fill="#4fa58b" stroke="#4fa58b" stroke-width="1.51"/><path d="M-23,895L54,1001L15,870Z" fill="#418282" stroke="#418282" stroke-width="1.51"/><path d="M-45,636L-130,647L-31,734Z" fill="#376e7c" stroke="#376e7c" stroke-width="1.51"/><path d="M-106,457L-88,566L-28,518Z" fill="#316479" stroke="#316479" stroke-width="1.51"/><path d="M1428,-35L1336,-101L1365,2Z" fill="#408282" stroke="#408282" stroke-width="1.51"/><path d="M-74,380L-106,457L-8,372Z" fill="#2c5d76" stroke="#2c5d76" stroke-width="1.51"/><path d="M-139,344L-106,457L-74,380Z" fill="#2b5a76" stroke="#2b5a76" stroke-width="1.51"/><path d="M15,870L54,1001L105,954Z" fill="#438683" stroke="#438683" stroke-width="1.51"/><path d="M155,1009L-131,1037L321,1027Z" fill="#478e85" stroke="#478e85" stroke-width="1.51"/><path d="M-23,895L15,870L-114,768Z" fill="#3d7b7f" stroke="#3d7b7f" stroke-width="1.51"/><path d="M1459,872L1547,774L1451,726Z" fill="#5ac292" stroke="#5ac292" stroke-width="1.51"/><path d="M1559,869L1547,774L1459,872Z" fill="#5bc793" stroke="#5bc793" stroke-width="1.51"/><path d="M1401,972L1496,906L1459,872Z" fill="#5cc994" stroke="#5cc994" stroke-width="1.51"/><path d="M1281,1015L1422,1010L1401,972Z" fill="#5dcb94" stroke="#5dcb94" stroke-width="1.51"/><path d="M1519,1021L1422,1010L1281,1015Z" fill="#5dce95" stroke="#5dce95" stroke-width="1.51"/><path d="M1567,548L1573,294L1536,445Z" fill="#51ab8c" stroke="#51ab8c" stroke-width="1.51"/><path d="M1533,168L1485,72L1471,109Z" fill="#489286" stroke="#489286" stroke-width="1.51"/><path d="M1533,168L1483,222L1537,260Z" fill="#4b9a88" stroke="#4b9a88" stroke-width="1.51"/><path d="M1471,109L1485,72L1349,27Z" fill="#458c84" stroke="#458c84" stroke-width="1.51"/><path d="M1573,294L1533,168L1537,260Z" fill="#4c9d89" stroke="#4c9d89" stroke-width="1.51"/><path d="M1422,1010L1496,906L1401,972Z" fill="#5dcb94" stroke="#5dcb94" stroke-width="1.51"/><path d="M-114,768L15,870L-31,734Z" fill="#3c777e" stroke="#3c777e" stroke-width="1.51"/><path d="M1485,72L1428,-35L1365,2Z" fill="#438883" stroke="#438883" stroke-width="1.51"/><path d="M-88,566L-130,647L-45,636Z" fill="#346a7b" stroke="#346a7b" stroke-width="1.51"/><path d="M-106,457L-130,647L-88,566Z" fill="#316579" stroke="#316579" stroke-width="1.51"/><path d="M97,-137L147,-48L198,-73Z" fill="#1b4770" stroke="#1b4770" stroke-width="1.51"/><path d="M97,-137L57,-64L147,-48Z" fill="#1a466f" stroke="#1a466f" stroke-width="1.51"/><path d="M147,-48L57,-64L49,66Z" fill="#1d4971" stroke="#1d4971" stroke-width="1.51"/><path d="M49,66L-50,68L10,144Z" fill="#204c71" stroke="#204c71" stroke-width="1.51"/><path d="M-106,457L-139,344L-130,647Z" fill="#2e5f77" stroke="#2e5f77" stroke-width="1.51"/><path d="M-46,242L-115,271L-39,358Z" fill="#275574" stroke="#275574" stroke-width="1.51"/><path d="M-103,132L-46,242L10,144Z" fill="#224f73" stroke="#224f73" stroke-width="1.51"/><path d="M-115,271L-139,344L-39,358Z" fill="#275674" stroke="#275674" stroke-width="1.51"/><path d="M-130,647L-114,768L-31,734Z" fill="#38707d" stroke="#38707d" stroke-width="1.51"/><path d="M1496,906L1559,869L1459,872Z" fill="#5cc993" stroke="#5cc993" stroke-width="1.51"/><path d="M1547,774L1559,869L1567,548Z" fill="#59c191" stroke="#59c191" stroke-width="1.51"/><path d="M1531,939L1559,869L1496,906Z" fill="#5dcc94" stroke="#5dcc94" stroke-width="1.51"/><path d="M-23,-57L-50,68L49,66Z" fill="#1b4770" stroke="#1b4770" stroke-width="1.51"/><path d="M-115,271L-103,132L-139,344Z" fill="#245073" stroke="#245073" stroke-width="1.51"/><path d="M407,-148L97,-137L263,-76Z" fill="#1e4a71" stroke="#1e4a71" stroke-width="1.51"/><path d="M57,-64L-23,-57L49,66Z" fill="#1a4670" stroke="#1a4670" stroke-width="1.51"/><path d="M1422,1010L1531,939L1496,906Z" fill="#5dcd95" stroke="#5dcd95" stroke-width="1.51"/><path d="M-140,947L-18,997L-23,895Z" fill="#408181" stroke="#408181" stroke-width="1.51"/><path d="M-23,895L-18,997L54,1001Z" fill="#428582" stroke="#428582" stroke-width="1.51"/><path d="M54,1001L-131,1037L155,1009Z" fill="#448984" stroke="#448984" stroke-width="1.51"/><path d="M1485,72L1528,40L1428,-35Z" fill="#458b85" stroke="#458b85" stroke-width="1.51"/><path d="M1533,168L1528,40L1485,72Z" fill="#489286" stroke="#489286" stroke-width="1.51"/><path d="M1572,-64L1528,40L1533,168Z" fill="#479085" stroke="#479085" stroke-width="1.51"/><path d="M-95,24L-103,132L-50,68Z" fill="#1b4770" stroke="#1b4770" stroke-width="1.51"/><path d="M-50,68L-103,132L10,144Z" fill="#1f4b71" stroke="#1f4b71" stroke-width="1.51"/><path d="M-114,768L-127,844L-23,895Z" fill="#3c787f" stroke="#3c787f" stroke-width="1.51"/><path d="M-130,647L-127,844L-114,768Z" fill="#38717d" stroke="#38717d" stroke-width="1.51"/><path d="M-140,947L-127,844L-130,647Z" fill="#3a747e" stroke="#3a747e" stroke-width="1.51"/><path d="M1422,1010L1519,1021L1531,939Z" fill="#5ed095" stroke="#5ed095" stroke-width="1.51"/><path d="M1531,939L1519,1021L1559,869Z" fill="#5ecf95" stroke="#5ecf95" stroke-width="1.51"/><path d="M1001,1047L1519,1021L1281,1015Z" fill="#5cc893" stroke="#5cc893" stroke-width="1.51"/><path d="M0,-89L-23,-57L57,-64Z" fill="#17426f" stroke="#17426f" stroke-width="1.51"/><path d="M1528,40L1478,-93L1428,-35Z" fill="#438783" stroke="#438783" stroke-width="1.51"/><path d="M1428,-35L1478,-93L1336,-101Z" fill="#418181" stroke="#418181" stroke-width="1.51"/><path d="M1336,-101L1541,-148L1240,-145Z" fill="#3d7c80" stroke="#3d7c80" stroke-width="1.51"/><path d="M97,-137L0,-89L57,-64Z" fill="#17426e" stroke="#17426e" stroke-width="1.51"/><path d="M-102,-74L-95,24L-23,-57Z" fill="#14416e" stroke="#14416e" stroke-width="1.51"/><path d="M-23,-57L-95,24L-50,68Z" fill="#19446f" stroke="#19446f" stroke-width="1.51"/><path d="M-103,132L-122,-60L-139,344Z" fill="#1e4a71" stroke="#1e4a71" stroke-width="1.51"/><path d="M-127,844L-140,947L-23,895Z" fill="#3e7c80" stroke="#3e7c80" stroke-width="1.51"/><path d="M-139,344L-140,947L-130,647Z" fill="#34697a" stroke="#34697a" stroke-width="1.51"/><path d="M1528,40L1572,-64L1478,-93Z" fill="#448984" stroke="#448984" stroke-width="1.51"/><path d="M1573,294L1572,-64L1533,168Z" fill="#4a9687" stroke="#4a9687" stroke-width="1.51"/><path d="M0,-89L-102,-74L-23,-57Z" fill="#14406d" stroke="#14406d" stroke-width="1.51"/><path d="M-95,24L-122,-60L-103,132Z" fill="#18446f" stroke="#18446f" stroke-width="1.51"/><path d="M97,-137L-102,-74L0,-89Z" fill="#14406d" stroke="#14406d" stroke-width="1.51"/><path d="M-140,947L-131,1037L-18,997Z" fill="#418281" stroke="#418281" stroke-width="1.51"/><path d="M-18,997L-131,1037L54,1001Z" fill="#438683" stroke="#438683" stroke-width="1.51"/><path d="M321,1027L-131,1037L1001,1047Z" fill="#4c9d89" stroke="#4c9d89" stroke-width="1.51"/><path d="M-102,-74L-122,-60L-95,24Z" fill="#133f6d" stroke="#133f6d" stroke-width="1.51"/><path d="M1572,-64L1541,-148L1478,-93Z" fill="#428582" stroke="#428582" stroke-width="1.51"/><path d="M1478,-93L1541,-148L1336,-101Z" fill="#408081" stroke="#408081" stroke-width="1.51"/><path d="M1240,-145L1541,-148L612,-148Z" fill="#376f7c" stroke="#376f7c" stroke-width="1.51"/></svg>